<?xml version="1.0" encoding="UTF-8" standalone="no"?>
<svg width="43px" height="50px" viewBox="0 0 43 50" version="1.1" xmlns="http://www.w3.org/2000/svg" xmlns:xlink="http://www.w3.org/1999/xlink" xmlns:sketch="http://www.bohemiancoding.com/sketch/ns">
    <!-- Generator: Sketch 3.4.1 (15681) - http://www.bohemiancoding.com/sketch -->
    <title>bird</title>
    <desc>Created with Sketch.</desc>
    <defs></defs>
    <g id="Page-1" stroke="none" stroke-width="1" fill="none" fill-rule="evenodd" sketch:type="MSPage">
        <g id="Version-3" sketch:type="MSArtboardGroup" transform="translate(-21.000000, -20.000000)" fill="#F6FEFD">
            <g id="Masthead" sketch:type="MSLayerGroup">
                <g id="bird" transform="translate(21.000000, 20.000000)" sketch:type="MSShapeGroup">
                    <g id="Group">
                        <path d="M42.4799048,42.9760204 L24.149619,23.8188776 C25.6643452,2.59438776 23.0940714,1.20408163 22.1250357,0.680612245 C22.1168452,0.676530612 22.1096786,0.67244898 22.1009762,0.668877551 C18.2765357,-1.01428571 4.3757619,2.54744898 3.78655952,2.7 C3.65602381,2.73316327 3.55927381,2.84234694 3.54084524,2.9755102 C3.52702381,3.08010204 3.56490476,3.18214286 3.63759524,3.25357143 L13.088381,13.127551 L4.15564286,25.8321429 C4.1500119,25.8397959 4.14745238,25.847449 4.14284524,25.8556122 C4.1382381,25.8647959 4.13260714,25.8729592 4.1285119,25.8826531 C4.12083333,25.8984694 4.11571429,25.9147959 4.11059524,25.9321429 C4.10854762,25.9403061 4.10547619,25.9489796 4.10342857,25.9576531 C4.10291667,25.9607143 4.10138095,25.9627551 4.10086905,25.9653061 L0.432559524,46.9943878 C0.4085,47.1346939 0.476583333,47.2739796 0.602,47.3423469 C0.651654762,47.3688776 0.705404762,47.3816327 0.759666667,47.3816327 C0.842083333,47.3816327 0.92347619,47.3505102 0.986440476,47.2918367 L8.51860714,40.2607143 L11.4190595,49.6663265 C11.4600119,49.7989796 11.5797976,50 11.7185238,50 L11.7359286,50 C11.868,50 11.9877857,49.8204082 12.0405119,49.6984694 L17.1273095,37.8428571 L24.7639048,46.9357143 C24.827381,47.0117347 24.9210595,47.0423469 25.0183214,47.0423469 C25.0403333,47.0423469 25.0623452,47.0331633 25.084869,47.0290816 L42.306881,43.5321429 C42.425131,43.5076531 42.5208571,43.4193878 42.5572024,43.305102 C42.5935476,43.1908163 42.5628333,43.0627551 42.4799048,42.9760204 L42.4799048,42.9760204 Z M25.1452738,46.3357143 L25.0766786,46.2535714 L23.923869,24.5403061 L34.2991548,35.3831633 L25.224619,46.3188776 L25.1452738,46.3357143 L25.1452738,46.3357143 Z M18.1449762,33.7673469 L4.8154881,26.1535714 L4.80064286,26.1040816 L4.8375,26.0627551 L23.3587262,24.0790816 L18.1449762,33.7673469 L18.1449762,33.7673469 Z M16.5140476,11.1877551 C16.2237976,11.8709184 15.6279405,13.1683673 15.2394048,13.6015306 L14.0261905,14.9392857 L13.1887143,14.1372449 L15.6827143,10.5903061 C16.0128929,10.8163265 16.2929048,11.0178571 16.5140476,11.1877551 L16.5140476,11.1877551 Z M23.5665595,22.6494898 C22.2304881,19.8326531 18.8345119,12.7897959 17.5900714,11.2846939 C18.8601071,9.93877551 20.538131,7.27091837 21.5634762,4.89387755 C22.8155952,6.68622449 23.5727024,9.12959184 23.9382024,10.5607143 C24.0114048,13.794898 23.8880357,17.8326531 23.5665595,22.6494898 L23.5665595,22.6494898 Z M15.6417619,14.1433673 L23.096631,23.2066327 C23.2159048,23.4586735 23.3264762,23.6923469 23.4262976,23.9061224 L5.00438095,25.8795918 L15.6417619,14.1433673 L15.6417619,14.1433673 Z M22.8043333,22.5892857 L15.753869,14.0183673 C16.1910357,13.5132653 16.7485,12.3086735 17.0356786,11.652551 C18.0103452,12.7255102 21.0679524,18.9433673 22.8043333,22.5892857 L22.8043333,22.5892857 Z M13.915619,15.0617347 L7.77941667,21.8316327 L13.0924762,14.2744898 L13.915619,15.0617347 L13.915619,15.0617347 Z M4.51858333,27.4295918 L7.37757143,36.6 L1.25877381,46.1214286 L4.51858333,27.4295918 L4.51858333,27.4295918 Z M23.4682738,4.82193878 C23.7011905,6.15306122 23.8522024,7.83316327 23.91875,9.85357143 C23.4969405,8.36734694 22.7603095,6.28265306 21.6407738,4.71530612 C22.0943214,3.63520408 22.4035119,2.62704082 22.4705714,1.84183673 C22.8053571,2.30969388 23.1775119,3.16530612 23.4682738,4.82193878 L23.4682738,4.82193878 Z M21.8214762,1.26836735 C21.9499643,1.3377551 22.1235,1.43520408 22.317,1.65 C22.2929405,2.42040816 21.9924524,3.45102041 21.5312262,4.56581633 C21.5199643,4.5505102 21.5087024,4.53469388 21.4979524,4.51989796 C20.22075,2.83520408 18.6845238,1.72244898 16.603119,0.992857143 C18.8258095,0.790306122 20.7649048,0.810204082 21.8214762,1.26836735 L21.8214762,1.26836735 Z M16.1956429,1.03214286 C18.4255,1.74693878 20.0385119,2.86938776 21.3648571,4.61938776 C21.3960833,4.66071429 21.4252619,4.70306122 21.4559762,4.74438776 C20.4475238,7.11173469 18.7577262,9.80408163 17.4805238,11.1602041 C17.4759167,11.155102 17.4697738,11.1479592 17.4651667,11.1428571 C16.3579167,9.92091837 7.38064286,4.67193878 4.74433333,3.14336735 C6.69725,2.66887755 11.8971786,1.46887755 16.1956429,1.03214286 L16.1956429,1.03214286 Z M5.73179762,4.48469388 C8.62917857,6.17959184 12.7423333,8.63367347 15.1334405,10.2204082 L13.4764048,12.5765306 L5.73179762,4.48469388 L5.73179762,4.48469388 Z M1.73330952,45.6897959 L7.44155952,36.8061224 L8.30002381,39.5591837 L1.73330952,45.6897959 L1.73330952,45.6897959 Z M11.7855833,48.5132653 L4.88817857,26.3852041 L18.0738214,33.9168367 L11.7855833,48.5132653 L11.7855833,48.5132653 Z M17.420119,37.1096939 L18.7111429,34.1132653 L23.7672262,24.7183673 L24.8995595,46.0418367 L17.420119,37.1096939 L17.420119,37.1096939 Z M25.4836429,46.2673469 L34.4138214,35.5045918 L41.5856071,42.9994898 L25.4836429,46.2673469 L25.4836429,46.2673469 Z" id="Shape"></path>
                    </g>
                </g>
            </g>
        </g>
    </g>
</svg>