<?xml version="1.0" encoding="UTF-8" standalone="no"?>
<svg width="165px" height="60px" viewBox="0 0 165 60" version="1.1" xmlns="http://www.w3.org/2000/svg" xmlns:xlink="http://www.w3.org/1999/xlink" xmlns:sketch="http://www.bohemiancoding.com/sketch/ns">
    <!-- Generator: Sketch 3.4.1 (15681) - http://www.bohemiancoding.com/sketch -->
    <title>explainer-icon-software</title>
    <desc>Created with Sketch.</desc>
    <defs></defs>
    <g id="Page-1" stroke="none" stroke-width="1" fill="none" fill-rule="evenodd" sketch:type="MSPage">
        <g id="Version-3" sketch:type="MSArtboardGroup" transform="translate(-958.000000, -537.000000)" fill="#4A4A4A">
            <g id="What" sketch:type="MSLayerGroup" transform="translate(0.000000, 474.000000)">
                <g id="Extend-your-programm-+-Apps-+-Cloud" transform="translate(880.000000, 63.000000)" sketch:type="MSShapeGroup">
                    <g id="explainer-icon-software" transform="translate(78.000000, 0.000000)">
                        <g id="Apps" transform="translate(108.000000, 0.000000)">
                            <g id="Group">
                                <path d="M33.0466667,14.5 L33.0466667,2.31333333 C33.0466667,1.68 32.7593333,1.11333333 32.3066667,0.74 C32.2066667,0.66 32.1,0.586666667 31.9873333,0.52 C31.7,0.366666667 31.3666667,0.273333333 31.0133333,0.273333333 L2.55333333,0.273333333 C1.43333333,0.273333333 0.52,1.18666667 0.52,2.31333333 L0.52,53.1333333 C0.52,54.2593333 1.43333333,55.1666667 2.55333333,55.1666667 L31.0133333,55.1666667 C32.14,55.1666667 33.0473333,54.26 33.0473333,53.1333333 L33.0473333,38.1866667 L30.1673333,38.1866667 L30.1673333,45.2533333 L3.4,45.2533333 L3.4,3.58 L30.1666667,3.58 L30.1666667,14.5 L33.0466667,14.5 L33.0466667,14.5 Z M16.78,47.0333333 C18.4,47.0333333 19.7066667,48.3466667 19.7066667,49.9606667 C19.7066667,51.574 18.4,52.8806667 16.78,52.8806667 C15.1666667,52.8806667 13.86,51.574 13.86,49.9606667 C13.86,48.3466667 15.1666667,47.0333333 16.78,47.0333333 L16.78,47.0333333 Z" id="Shape"></path>
                                <path d="M22.7533333,24.4133333 L22.7533333,33.4866667 C22.7533333,34.2793333 22.1133333,34.926 21.32,34.926 L12.2466667,34.926 C11.4533333,34.926 10.8066667,34.2793333 10.8066667,33.4866667 L10.8066667,24.4133333 C10.8066667,23.62 11.4533333,22.9733333 12.2466667,22.9733333 L21.32,22.9733333 C22.1133333,22.9733333 22.7533333,23.62 22.7533333,24.4133333 L22.7533333,24.4133333 Z" id="Shape"></path>
                                <path d="M56.2933333,9.87333333 L56.2933333,21.7933333 C56.2933333,22.84 55.446,23.6866667 54.4066667,23.6866667 L48.2,23.6866667 L48.2,18.36 C48.2,16.2333333 46.4666667,14.5 44.34,14.5 L40.6,14.5 L40.6,9.87333333 C40.6,8.83333333 41.4466667,7.98666667 42.4866667,7.98666667 L54.4066667,7.98666667 C55.4466667,7.98666667 56.2933333,8.83333333 56.2933333,9.87333333 L56.2933333,9.87333333 Z" id="Shape"></path>
                                <path d="M46.8666667,18.36 L46.8666667,30.6933333 L42.3266667,30.6933333 C40.8,30.6933333 39.56,31.94 39.56,33.4666667 L39.56,36.8533333 L28.3733333,36.8533333 C26.9733333,36.8533333 25.8466667,35.7266667 25.8466667,34.3266667 L25.8466667,18.36 C25.8466667,16.9666667 26.9733333,15.8333333 28.3733333,15.8333333 L44.34,15.8333333 C45.7333333,15.8333333 46.8666667,16.9666667 46.8666667,18.36 L46.8666667,18.36 Z" id="Shape"></path>
                                <path d="M52.8333333,33.4666667 L52.8333333,42.54 C52.8333333,43.3333333 52.1933333,43.98 51.4,43.98 L42.3266667,43.98 C41.5333333,43.98 40.8933333,43.3333333 40.8933333,42.54 L40.8933333,33.4666667 C40.8933333,32.6733333 41.5333333,32.0266667 42.3266667,32.0266667 L51.4,32.0266667 C52.1933333,32.0266667 52.8333333,32.6733333 52.8333333,33.4666667 L52.8333333,33.4666667 Z" id="Shape"></path>
                            </g>
                        </g>
                        <g id="Cloud">
                            <g id="Group">
                                <path d="M33.2606667,24.7826667 L26.7393333,24.7826667 L26.7393333,53.478 L21.1953333,53.478 L29.674,59.348 L38.8046667,53.478 L33.2606667,53.478 L33.2606667,24.7826667 Z" id="Shape"></path>
                                <path d="M60,44.402 L54.1306667,36.848 L54.1306667,41.0866667 L46.3046667,41.0866667 L46.3046667,24.7826667 L39.7826667,24.7826667 L39.7826667,47.6086667 L45,47.6086667 L46.3046667,47.6086667 L54.1306667,47.6086667 L54.1306667,51.848 L60,44.402 Z" id="Shape"></path>
                                <path d="M13.6953333,41.0866667 L5.86933333,41.0866667 L5.86933333,36.848 L0,44.402 L5.86933333,51.848 L5.86933333,47.6086667 L13.6953333,47.6086667 L15,47.6086667 L20.2173333,47.6086667 L20.2173333,24.7826667 L13.6953333,24.7826667 L13.6953333,41.0866667 Z" id="Shape"></path>
                                <path d="M9.67733333,34.3353333 L11.7386667,34.3353333 L11.7386667,22.826 L22.1733333,22.826 L22.1733333,34.3353333 L24.782,34.3353333 L24.782,22.826 L35.2166667,22.826 L35.2166667,34.3353333 L37.8253333,34.3353333 L37.8253333,22.826 L48.26,22.826 L48.26,34.3353333 L49.0173333,34.3353333 C54.362,34.3353333 58.6946667,30.002 58.6946667,24.6573333 C58.6946667,19.7986667 55.1146667,15.778 50.4486667,15.0853333 C50.6546667,14.2146667 50.7646667,13.3066667 50.7646667,12.372 C50.7646667,5.89866667 45.5173333,0.652 39.0446667,0.652 C35.93,0.652 33.1006667,1.86733333 31.0013333,3.84933333 C29.02,2.77333333 26.7493333,2.16266667 24.3366667,2.16266667 C17.0066667,2.16266667 10.9946667,7.80333333 10.4033333,14.98 L9.67666667,14.98 C4.33266667,14.98 0,19.3133333 0,24.6573333 C0,30.0026667 4.33266667,34.3353333 9.67733333,34.3353333 L9.67733333,34.3353333 Z" id="Shape"></path>
                            </g>
                        </g>
                    </g>
                </g>
            </g>
        </g>
    </g>
</svg>