<?xml version="1.0" encoding="UTF-8" standalone="no"?>
<svg width="175px" height="60px" viewBox="0 0 175 60" version="1.1" xmlns="http://www.w3.org/2000/svg" xmlns:xlink="http://www.w3.org/1999/xlink" xmlns:sketch="http://www.bohemiancoding.com/sketch/ns">
    <!-- Generator: Sketch 3.4.1 (15681) - http://www.bohemiancoding.com/sketch -->
    <title>explainer-icon-cardboard</title>
    <desc>Created with Sketch.</desc>
    <defs></defs>
    <g id="Page-1" stroke="none" stroke-width="1" fill="none" fill-rule="evenodd" sketch:type="MSPage">
        <g id="Version-3" sketch:type="MSArtboardGroup" transform="translate(-142.000000, -537.000000)" fill="#4A4A4A">
            <g id="What" sketch:type="MSLayerGroup" transform="translate(0.000000, 474.000000)">
                <g id="Learn-how-to-make-op-+-Box-+-Scissors" transform="translate(70.000000, 63.000000)" sketch:type="MSShapeGroup">
                    <g id="explainer-icon-cardboard" transform="translate(72.000000, 0.000000)">
                        <g id="Box" transform="translate(92.500000, 0.000000)">
                            <g id="Group">
                                <g>
                                    <g id="Shape">
                                        <path d="M40.6160641,31.8963245 L40.6160641,30.5763707 L40.6160641,30.5763707 L39.3662462,31.8249678 L40.2533206,32.2590681 L40.6160641,31.8963245 L40.6160641,31.8963245 Z M40.6160641,29.3963245 L40.6160641,28.077314 L40.6160641,28.077314 L37.6876231,31.0035139 L38.5747491,31.4376395 L40.6160641,29.3963245 L40.6160641,29.3963245 L40.6160641,29.3963245 Z M40.6160641,26.8963245 L40.6160641,25.628115 L40.6160641,25.628115 L36.011079,30.1830775 L36.8961777,30.6162109 L40.6160641,26.8963245 L40.6160641,26.8963245 L40.6160641,26.8963245 Z M40.6160641,24.3963245 L40.6160641,23.0708134 L40.6160641,23.0708134 L34.3302036,29.3605215 L35.2176063,29.7947823 L40.6160641,24.3963245 L40.6160641,24.3963245 L40.6160641,24.3963245 Z M40.6160641,21.8963245 L40.6160641,20.5991944 L40.6160641,20.5991944 L32.6522942,28.5394168 L33.5390349,28.9733537 L40.6160641,21.8963245 L40.6160641,21.8963245 L40.6160641,21.8963245 Z M40.6160641,19.3963245 L40.6160641,18.0279845 L30.9723491,27.7173161 L31.8604635,28.1519251 L40.6160641,19.3963245 L40.6160641,19.3963245 L40.6160641,19.3963245 Z M40.6160641,16.8963245 L40.6160641,15.5806774 L40.6160641,15.5806774 L29.2946916,26.8963346 L30.1818921,27.3304966 L40.6160641,16.8963245 L40.6160641,16.8963245 L40.6160641,16.8963245 Z M40.6160641,14.3963245 L40.6160641,13.0748358 L40.6160641,13.0748358 L27.6160353,26.0748646 L28.5033206,26.5090681 L40.6160641,14.3963245 L40.6160641,14.3963245 Z M40.6160641,11.8963245 L40.6160641,10.5748357 L40.6160641,10.5748357 L25.9374639,25.2534361 L26.8247491,25.6876395 L40.5450172,11.9673715 L40.6160641,11.8963245 L40.6160641,11.8963245 L40.6160641,11.8963245 Z M40.2934875,9.71890114 L37.3729452,11.1517921 L37.3729452,11.1517921 L36.5446278,12.1462721 L24.2588925,24.4320075 L25.1461777,24.8662109 L40.2934875,9.71890114 L40.2934875,9.71890114 L40.2934875,9.71890114 Z M35.3855121,12.1268766 L32.7341336,13.4277091 L32.7341336,13.4277091 L32.3779611,13.8129388 L22.7848275,23.4060727 L22.5803212,23.610579 L23.4676063,24.0447823 L35.3855121,12.1268766 L35.3855121,12.1268766 L35.3855121,12.1268766 Z M30.4775366,14.534852 L27.8362207,15.8307476 L27.8362207,15.8307476 L27.3779611,16.3129388 L20.9017496,22.7891503 L21.8264751,23.2416756 L22.1955718,22.8168171 L30.4775366,14.534852 L30.4775366,14.534852 L30.4775366,14.534852 Z M25.5695611,16.9428275 L23.0445431,18.1816645 L23.0445431,18.1816645 L22.4805491,18.7103508 L19.2231781,21.9677217 L20.1104635,22.4019251 L20.1220388,22.3903498 L25.5695611,16.9428275 L25.5695611,16.9428275 L25.5695611,16.9428275 Z M20.6615856,19.350803 L17.2729476,21.0133536 L18.4318921,21.5804966 L18.4553721,21.5570165 L20.6615856,19.350803 L20.6615856,19.350803 Z M16.7004078,35.7508166 L16.7004078,45.2584879 L39.8519503,56.7905115 C40.050911,56.5997586 40.3198727,56.4814445 40.6160641,56.476061 L40.6160641,56.476061 L40.6160641,33.9260648 L40.6160641,33.9260648 L27.3476523,40.6266128 L27.2800203,40.673738 L27.2610081,40.7102869 L27.2401001,40.701554 L27.2334798,40.7061669 L27.220884,40.6935277 L26.9056586,40.5618633 L16.7004078,35.7508166 L16.7004078,35.7508166 L16.7004078,35.7508166 Z M15.2144942,34.1366991 L2.85051864,28.1768382 L15.2241772,22.0136068 L15.2241772,22.0136068 L15.2261246,22.0175761 L15.6001948,21.8340478 L16.3262365,21.4778336 L40.2421096,33.1813461 L27.1879974,39.7736727 L15.5943413,34.308092 L15.2174556,34.1304173 L15.2144942,34.1366991 L15.2144942,34.1366991 L15.2144942,34.1366991 Z M41.4622321,32.5651841 L41.4622321,9.79565789 L64.1507281,21.1074937 L41.4622321,32.5651841 L41.4622321,32.5651841 L41.4622321,32.5651841 Z M65.0809716,21.5712866 L68.5640872,23.3078685 L68.9369781,23.4937812 L68.9448916,23.477909 L68.9448916,23.477909 L78.3785166,28.1768382 L65.1679449,34.5449241 C65.0777911,34.5883669 64.9024938,34.6775937 64.7582706,34.7515384 L64.7582706,34.7515384 L64.7555672,34.7464551 L64.387689,34.9420994 L55.4495926,39.6955416 L42.1139939,33.1696103 L65.0809716,21.5712866 L65.0809716,21.5712866 L65.0809716,21.5712866 Z M65.1315857,20.6121606 C65.1129346,20.6207931 65.0944741,20.6293336 65.0762418,20.6377651 L65.0762418,20.6377651 L41.75448,9.01020106 L55.0563201,2.38449748 L78.8033133,13.8313764 L66.2159268,20.1013486 C66.0881611,20.1649423 65.8582623,20.2736984 65.6084699,20.3904634 L65.6007726,20.3752212 L65.2288414,20.5630465 L65.1315857,20.6121606 L65.1315857,20.6121606 L65.1315857,20.6121606 Z M41.4622321,33.7784273 L41.4622321,56.7483807 L41.4622321,56.7483807 L64.5289108,45.2584879 L64.5289108,35.810846 L55.612311,40.5528559 L55.4659994,40.6327277 L55.4606116,40.6399444 L55.4566702,40.6378205 L55.4444885,40.6444706 L55.4195271,40.6178046 L55.2335196,40.517568 L41.4622321,33.7784273 L41.4622321,33.7784273 L41.4622321,33.7784273 Z M16.2234643,20.4997766 C15.8801911,20.3254126 15.4411523,20.1028869 15.2256485,19.9956226 L2.85051864,13.8313764 L26.5975118,2.38449748 L39.0268625,8.57561031 L39.0268625,8.57561031 L39.0245297,8.58028906 L39.3974206,8.76620181 L39.8665941,9.00011831 L16.3257638,20.5498381 L16.2234643,20.4997766 L16.2234643,20.4997766 L16.2234643,20.4997766 Z M41.0474619,59.5627871 C40.8760189,59.5627871 40.7045758,59.5233161 40.5462992,59.4438101 L15.7467297,46.9642 C15.3671459,46.7730475 15.1273498,46.3825662 15.1273498,45.9554334 L15.1273498,36.2672705 L0.632570559,29.2087236 C0.248224392,29.0215181 0.00282555911,28.6307551 2.42257735e-05,28.2008028 C-0.00277719089,27.7711326 0.237579226,27.3772681 0.619404142,27.1849878 L12.9019521,21.0043893 L0.619404142,14.8235088 C0.237579226,14.6315105 -0.00277719089,14.2373641 2.42257735e-05,13.8076938 C0.00282555911,13.3777416 0.248224392,12.9869785 0.632570559,12.799773 L26.6851868,0.11265806 C26.9980983,-0.0398692733 27.3636754,-0.0373317733 27.6743458,0.119142643 L41.0443804,6.84697873 C41.2217063,6.77564889 41.4127588,6.75168439 41.5984887,6.77508506 L54.8256541,0.119142643 C55.1368849,-0.0373317733 55.5019016,-0.0398692733 55.8148131,0.11265806 L81.8674291,12.799773 C82.2517758,12.9869785 82.4971741,13.3777416 82.4999758,13.8076938 C82.5027775,14.2373641 82.2624208,14.6315105 81.8805958,14.8235088 L69.3879461,21.1101152 L81.4603925,27.1849878 C81.8422175,27.3772681 82.0825733,27.7711326 82.0797725,28.2008028 C82.0769708,28.6307551 81.8315725,29.0215181 81.4472258,29.2087236 L66.9524466,36.2672705 L66.9524466,45.9554334 C66.9524466,46.3825662 66.7126506,46.7730475 66.3330667,46.9642 L41.654796,59.3826301 C41.6463919,59.3882687 41.6377077,59.3936256 41.6290236,59.3992642 C41.4508572,59.5080915 41.2494397,59.5627871 41.0474619,59.5627871 L41.0474619,59.5627871 Z"></path>
                                    </g>
                                </g>
                            </g>
                        </g>
                        <g id="Scissors" transform="translate(0.000000, 10.833333)">
                            <g id="Group">
                                <path d="M27.4833333,20.1058333 L26.145,20.1058333 C25.5908333,20.1058333 25.1408333,19.6566667 25.1408333,19.1033333 C25.1408333,18.5483333 25.5908333,18.0983333 26.145,18.0983333 L27.4833333,18.0983333 C28.0375,18.0983333 28.4875,18.5483333 28.4875,19.1033333 C28.4875,19.6566667 28.0383333,20.1058333 27.4833333,20.1058333 L27.4833333,20.1058333 Z" id="Shape"></path>
                                <path d="M22.3741667,20.1058333 L19.86,20.1058333 C19.3058333,20.1058333 18.8558333,19.6566667 18.8558333,19.1033333 C18.8558333,18.5483333 19.3058333,18.0983333 19.86,18.0983333 L22.3741667,18.0983333 C22.9283333,18.0983333 23.3783333,18.5483333 23.3783333,19.1033333 C23.3775,19.6566667 22.9283333,20.1058333 22.3741667,20.1058333 L22.3741667,20.1058333 Z M16.0883333,20.1058333 L13.5741667,20.1058333 C13.02,20.1058333 12.57,19.6566667 12.57,19.1033333 C12.57,18.5483333 13.02,18.0983333 13.5741667,18.0983333 L16.0883333,18.0983333 C16.6425,18.0983333 17.0925,18.5483333 17.0925,19.1033333 C17.0925,19.6566667 16.6425,20.1058333 16.0883333,20.1058333 L16.0883333,20.1058333 Z M9.80333333,20.1058333 L7.28916667,20.1058333 C6.73416667,20.1058333 6.285,19.6566667 6.285,19.1033333 C6.285,18.5483333 6.73416667,18.0983333 7.28916667,18.0983333 L9.80333333,18.0983333 C10.3575,18.0983333 10.8075,18.5483333 10.8075,19.1033333 C10.8075,19.6566667 10.3575,20.1058333 9.80333333,20.1058333 L9.80333333,20.1058333 Z M3.5175,20.1058333 L1.00416667,20.1058333 C0.449166667,20.1058333 0,19.6566667 0,19.1033333 C0,18.5483333 0.449166667,18.0983333 1.00416667,18.0983333 L3.5175,18.0983333 C4.0725,18.0983333 4.52166667,18.5483333 4.52166667,19.1033333 C4.52083333,19.6566667 4.07166667,20.1058333 3.5175,20.1058333 L3.5175,20.1058333 Z" id="Shape"></path>
                                <path d="M62.0391667,19.1033333 C62.0391667,18.5483333 61.59,18.0983333 61.035,18.0983333 L58.4441667,18.0983333 C57.8891667,18.0983333 57.4383333,18.5483333 57.4383333,19.1033333 C57.4383333,19.1341667 57.455,19.1616667 57.4558333,19.1933333 L59.835,20.1058333 L61.0341667,20.1058333 C61.59,20.1058333 62.0391667,19.6566667 62.0391667,19.1033333 L62.0391667,19.1033333 Z" id="Shape"></path>
                                <path d="M73.9958333,18.0983333 L71.405,18.0983333 C70.85,18.0983333 70.4008333,18.5483333 70.4008333,19.1033333 C70.4008333,19.6566667 70.85,20.1058333 71.405,20.1058333 L73.9958333,20.1058333 C74.5491667,20.1058333 75,19.6566667 75,19.1033333 C75,18.5483333 74.5491667,18.0983333 73.9958333,18.0983333 L73.9958333,18.0983333 Z" id="Shape"></path>
                                <path d="M67.5166667,18.0983333 L64.9241667,18.0983333 C64.3691667,18.0983333 63.92,18.5483333 63.92,19.1033333 C63.92,19.6566667 64.3691667,20.1058333 64.9241667,20.1058333 L67.5166667,20.1058333 C68.0716667,20.1058333 68.5208333,19.6566667 68.5208333,19.1033333 C68.5208333,18.5483333 68.0716667,18.0983333 67.5166667,18.0983333 L67.5166667,18.0983333 Z" id="Shape"></path>
                                <path d="M43.9808333,21.9066667 C43.9808333,21.9066667 59.5408333,27.0575 62.1575,27.6516667 C64.7716667,28.2475 66.705,27.5858333 69.2275,25.2616667 L51.0441667,18.2791667 L43.9808333,21.9066667 L43.9808333,21.9066667 Z" id="Shape"></path>
                                <path d="M30.7333333,16.8033333 L33.5825,12.1575 L30.3416667,10.795 L28.1816667,15.7125 L30.7333333,16.8033333 Z" id="Shape"></path>
                                <path d="M26.1816667,24.4875 C23.9466667,20.8908333 18.365,20.1575 13.555,22.885 C8.64833333,25.6666667 6.41083333,30.9841667 8.55166667,34.7633333 C10.6958333,38.5441667 16.4075,39.3541667 21.3141667,36.57 C23.8233333,35.1483333 25.63,33.06 26.5133333,30.85 C28.0683333,28.8716667 32.1333333,26.1033333 32.1333333,26.1033333 L28.63,22.1458333 C28.3908333,22.2891667 27.0575,23.3166667 26.1816667,24.4875 L26.1816667,24.4875 Z M19.5658333,33.4883333 C16.8708333,35.015 13.7341667,34.5691667 12.5575,32.4925 C11.3816667,30.42 12.61,27.4966667 15.305,25.97 C17.9966667,24.4433333 21.135,24.8883333 22.3133333,26.9633333 C23.49,29.04 22.2583333,31.9591667 19.5658333,33.4883333 L19.5658333,33.4883333 Z" id="Shape"></path>
                                <path d="M22.9433333,13.875 L22.9408333,13.8891667 C23.5058333,13.3666667 24.4091667,13.4991667 25.1183333,13.6658333 C26.6033333,14.0133333 27.0525,15.1941667 27.0525,15.1941667 L29.2116667,10.2483333 C29.2116667,10.2483333 26.4908333,8.64583333 24.3233333,5.39916667 L24.3208333,5.40833333 C22.935,3.05416667 20.245,1.13 16.8833333,0.403333333 C11.3725,-0.783333333 6.16333333,1.695 5.245,5.94166667 C4.3275,10.1883333 8.055,14.595 13.5658333,15.7841667 C17.21,16.57 20.7158333,15.7466667 22.9433333,13.875 L22.9433333,13.875 Z M9.74416667,6.91333333 C10.2458333,4.58166667 13.1083333,3.21833333 16.1358333,3.87166667 C19.1625,4.52333333 21.21,6.945 20.705,9.27666667 C20.2033333,11.6083333 17.3408333,12.9708333 14.3133333,12.3166667 C11.2866667,11.6666667 9.24,9.24583333 9.74416667,6.91333333 L9.74416667,6.91333333 Z" id="Shape"></path>
                                <path d="M63.7633333,5.47833333 C61.0383333,6.06916667 35.115,12.4158333 35.115,12.4158333 L29.6641667,21.1308333 L33.3608333,25.2108333 L69.7441667,8.09166667 C69.7441667,8.09166667 66.4841667,4.88833333 63.7633333,5.47833333 L63.7633333,5.47833333 Z M38.1733333,19.0766667 C37.0183333,19.0216667 36.1291667,18.0383333 36.1833333,16.8858333 C36.2408333,15.7316667 37.2216667,14.8416667 38.3775,14.8983333 C39.53,14.9541667 40.4208333,15.9358333 40.3641667,17.09 C40.3058333,18.2433333 39.3258333,19.1341667 38.1733333,19.0766667 L38.1733333,19.0766667 Z" id="Shape"></path>
                            </g>
                        </g>
                    </g>
                </g>
            </g>
        </g>
    </g>
</svg>