<?xml version="1.0" encoding="UTF-8" standalone="no"?>
<svg width="139px" height="60px" viewBox="0 0 139 60" version="1.1" xmlns="http://www.w3.org/2000/svg" xmlns:xlink="http://www.w3.org/1999/xlink" xmlns:sketch="http://www.bohemiancoding.com/sketch/ns">
    <!-- Generator: Sketch 3.4.1 (15681) - http://www.bohemiancoding.com/sketch -->
    <title>explainer-icon-hardware</title>
    <desc>Created with Sketch.</desc>
    <defs></defs>
    <g id="Page-1" stroke="none" stroke-width="1" fill="none" fill-rule="evenodd" sketch:type="MSPage">
        <g id="Version-3" sketch:type="MSArtboardGroup" transform="translate(-565.000000, -537.000000)" fill="#4A4A4A">
            <g id="What" sketch:type="MSLayerGroup" transform="translate(0.000000, 474.000000)">
                <g id="LED-+-Arduino-+-Build-real-connected" transform="translate(475.000000, 63.000000)" sketch:type="MSShapeGroup">
                    <g id="explainer-icon-hardware" transform="translate(90.000000, 0.000000)">
                        <g id="LED" transform="translate(105.230769, 9.230769)">
                            <path d="M17.4888392,7.73809615 L16.7317622,7.73809615 L16.7317622,0.162 L17.4888392,0.162 L17.4888392,7.73809615 L17.4888392,7.73809615 Z M28.3073287,3.69951923 L27.7727692,3.16315385 L22.4328671,8.52005769 L22.9674266,9.05642308 L28.3073287,3.69951923 L28.3073287,3.69951923 Z M33.6379161,14.1999231 L26.0868112,14.1994038 L26.0868112,14.9595577 L33.6379161,14.9595577 L33.6379161,14.1999231 L33.6379161,14.1999231 Z M8.06651748,14.9595577 L8.06651748,14.1994038 L0.515412587,14.1999231 L0.515412587,14.9595577 L8.06651748,14.9595577 L8.06651748,14.9595577 Z M11.8229231,8.52005769 L6.48353846,3.16315385 L5.94897902,3.69951923 L11.2883636,9.05642308 L11.8229231,8.52005769 L11.8229231,8.52005769 Z M26.8635524,36.2449038 L20.7758881,36.2449038 L20.7758881,41.3764615 L19.2234406,41.3764615 L19.2234406,36.2449038 L14.7673986,36.2449038 L14.7673986,41.3764615 L13.214951,41.3764615 L13.214951,36.2449038 L7.12728671,36.2449038 L7.12728671,29.4258462 L10.3708671,29.4258462 L10.3708671,17.9508462 C10.3708671,14.2850769 13.3427692,11.3031346 16.9956783,11.3031346 C20.6485874,11.3031346 23.6204895,14.2850769 23.6204895,17.9508462 L23.6204895,29.4258462 L26.8640699,29.4258462 L26.8640699,36.2449038 L26.8635524,36.2449038 Z M11.9233147,29.4258462 L22.068042,29.4258462 L22.068042,17.9508462 C22.068042,15.1444038 19.7926713,12.8608269 16.9956783,12.8608269 C14.1986853,12.8608269 11.9233147,15.1438846 11.9233147,17.9508462 L11.9233147,29.4258462 L11.9233147,29.4258462 Z M25.3111049,30.9835385 L23.619972,30.9835385 L10.3708671,30.9835385 L8.67973427,30.9835385 L8.67973427,34.6872115 L25.3111049,34.6872115 L25.3111049,30.9835385 L25.3111049,30.9835385 Z M16.9951608,15.3489808 L16.9951608,14.5701346 C15.0535664,14.5701346 13.4731748,16.1553462 13.4731748,18.1040192 L14.2493986,18.1040192 C14.2499161,16.5842308 15.4815245,15.3489808 16.9951608,15.3489808 L16.9951608,15.3489808 Z" id="Shape"></path>
                        </g>
                        <g id="Arduino">
                            <g id="Group">
                                <g>
                                    <path d="M78.4615385,60 L9.23076923,60 C8.21538462,60 7.38461538,59.1692308 7.38461538,58.1538462 L7.38461538,57.2307692 C7.38461538,56.2153846 8.21538462,55.3846154 9.23076923,55.3846154 C9.87692308,55.3846154 10.5230769,55.7538462 10.8,56.3076923 L77.6307692,56.3076923 L79.2923077,54.6461538 L79.2923077,18.2769231 L77.0769231,16.0615385 C76.8,15.6923077 76.6153846,15.2307692 76.6153846,14.7692308 L76.6153846,3.69230769 L11.0769231,3.69230769 L11.0769231,9.23076923 C11.0769231,10.2461538 10.2461538,11.0769231 9.23076923,11.0769231 C8.21538462,11.0769231 7.38461538,10.2461538 7.38461538,9.23076923 L7.38461538,1.84615385 C7.38461538,0.830769231 8.21538462,0 9.23076923,0 L78.4615385,0 C79.4769231,0 80.3076923,0.830769231 80.3076923,1.84615385 L80.3076923,14.0307692 L82.5230769,16.2461538 C82.8923077,16.6153846 83.0769231,17.0769231 83.0769231,17.5384615 L83.0769231,55.3846154 C83.0769231,55.8461538 82.8923077,56.3076923 82.5230769,56.6769231 L79.7538462,59.4461538 C79.3846154,59.8153846 78.9230769,60 78.4615385,60 L78.4615385,60 Z" id="Shape"></path>
                                    <path d="M9.23076923,43.3846154 C8.21538462,43.3846154 7.38461538,42.5538462 7.38461538,41.5384615 L7.38461538,27.6923077 C7.38461538,26.6769231 8.21538462,25.8461538 9.23076923,25.8461538 C10.2461538,25.8461538 11.0769231,26.6769231 11.0769231,27.6923077 L11.0769231,41.5384615 C11.0769231,42.5538462 10.2461538,43.3846154 9.23076923,43.3846154 L9.23076923,43.3846154 Z" id="Shape"></path>
                                    <path d="M16.1538462,24.9230769 L1.38461538,24.9230769 C0.646153846,24.9230769 0,24.2769231 0,23.5384615 L0,13.3846154 C0,12.6461538 0.646153846,12 1.38461538,12 L16.1538462,12 C16.8923077,12 17.5384615,12.6461538 17.5384615,13.3846154 L17.5384615,23.5384615 C17.5384615,24.2769231 16.8923077,24.9230769 16.1538462,24.9230769 L16.1538462,24.9230769 Z" id="Shape"></path>
                                    <path d="M18.9230769,54.4615385 L6,54.4615385 C5.26153846,54.4615385 4.61538462,53.8153846 4.61538462,53.0769231 L4.61538462,45.6923077 C4.61538462,44.9538462 5.26153846,44.3076923 6,44.3076923 L18.9230769,44.3076923 C19.6615385,44.3076923 20.3076923,44.9538462 20.3076923,45.6923077 L20.3076923,53.0769231 C20.3076923,53.8153846 19.6615385,54.4615385 18.9230769,54.4615385 L18.9230769,54.4615385 Z" id="Shape"></path>
                                    <path d="M40.6153846,35.0769231 C40.0615385,35.0769231 39.6923077,35.4461538 39.6923077,36 L39.6923077,36.9230769 L41.5384615,36.9230769 L41.5384615,36 C41.5384615,35.4461538 41.1692308,35.0769231 40.6153846,35.0769231 L40.6153846,35.0769231 Z" id="Shape"></path>
                                    <path d="M37.8461538,35.0769231 C37.2923077,35.0769231 36.9230769,35.4461538 36.9230769,36 L36.9230769,36.9230769 L38.7692308,36.9230769 L38.7692308,36 C38.7692308,35.4461538 38.4,35.0769231 37.8461538,35.0769231 L37.8461538,35.0769231 Z" id="Shape"></path>
                                    <path d="M43.3846154,35.0769231 C42.8307692,35.0769231 42.4615385,35.4461538 42.4615385,36 L42.4615385,36.9230769 L44.3076923,36.9230769 L44.3076923,36 C44.3076923,35.4461538 43.9384615,35.0769231 43.3846154,35.0769231 L43.3846154,35.0769231 Z" id="Shape"></path>
                                    <path d="M46.1538462,35.0769231 C45.6,35.0769231 45.2307692,35.4461538 45.2307692,36 L45.2307692,36.9230769 L47.0769231,36.9230769 L47.0769231,36 C47.0769231,35.4461538 46.7076923,35.0769231 46.1538462,35.0769231 L46.1538462,35.0769231 Z" id="Shape"></path>
                                    <path d="M48.9230769,35.0769231 C48.3692308,35.0769231 48,35.4461538 48,36 L48,36.9230769 L49.8461538,36.9230769 L49.8461538,36 C49.8461538,35.4461538 49.4769231,35.0769231 48.9230769,35.0769231 L48.9230769,35.0769231 Z" id="Shape"></path>
                                    <path d="M51.6923077,35.0769231 C51.1384615,35.0769231 50.7692308,35.4461538 50.7692308,36 L50.7692308,36.9230769 L52.6153846,36.9230769 L52.6153846,36 C52.6153846,35.4461538 52.2461538,35.0769231 51.6923077,35.0769231 L51.6923077,35.0769231 Z" id="Shape"></path>
                                    <path d="M54.4615385,35.0769231 C53.9076923,35.0769231 53.5384615,35.4461538 53.5384615,36 L53.5384615,36.9230769 L55.3846154,36.9230769 L55.3846154,36 C55.3846154,35.4461538 55.0153846,35.0769231 54.4615385,35.0769231 L54.4615385,35.0769231 Z" id="Shape"></path>
                                    <path d="M57.2307692,35.0769231 C56.6769231,35.0769231 56.3076923,35.4461538 56.3076923,36 L56.3076923,36.9230769 L58.1538462,36.9230769 L58.1538462,36 C58.1538462,35.4461538 57.7846154,35.0769231 57.2307692,35.0769231 L57.2307692,35.0769231 Z" id="Shape"></path>
                                    <path d="M60,35.0769231 C59.4461538,35.0769231 59.0769231,35.4461538 59.0769231,36 L59.0769231,36.9230769 L60.9230769,36.9230769 L60.9230769,36 C60.9230769,35.4461538 60.5538462,35.0769231 60,35.0769231 L60,35.0769231 Z" id="Shape"></path>
                                    <path d="M62.7692308,35.0769231 C62.2153846,35.0769231 61.8461538,35.4461538 61.8461538,36 L61.8461538,36.9230769 L63.6923077,36.9230769 L63.6923077,36 C63.6923077,35.4461538 63.3230769,35.0769231 62.7692308,35.0769231 L62.7692308,35.0769231 Z" id="Shape"></path>
                                    <path d="M65.5384615,35.0769231 C64.9846154,35.0769231 64.6153846,35.4461538 64.6153846,36 L64.6153846,36.9230769 L66.4615385,36.9230769 L66.4615385,36 C66.4615385,35.4461538 66.0923077,35.0769231 65.5384615,35.0769231 L65.5384615,35.0769231 Z" id="Shape"></path>
                                    <path d="M68.3076923,35.0769231 C67.7538462,35.0769231 67.3846154,35.4461538 67.3846154,36 L67.3846154,36.9230769 L69.2307692,36.9230769 L69.2307692,36 C69.2307692,35.4461538 68.8615385,35.0769231 68.3076923,35.0769231 L68.3076923,35.0769231 Z" id="Shape"></path>
                                    <path d="M71.0769231,35.0769231 C70.5230769,35.0769231 70.1538462,35.4461538 70.1538462,36 L70.1538462,36.9230769 L72,36.9230769 L72,36 C72,35.4461538 71.6307692,35.0769231 71.0769231,35.0769231 L71.0769231,35.0769231 Z" id="Shape"></path>
                                    <path d="M73.8461538,35.0769231 C73.2923077,35.0769231 72.9230769,35.4461538 72.9230769,36 L72.9230769,36.9230769 L74.7692308,36.9230769 L74.7692308,36 C74.7692308,35.4461538 74.4,35.0769231 73.8461538,35.0769231 L73.8461538,35.0769231 Z" id="Shape"></path>
                                    <path d="M71.0769231,48.9230769 C71.6307692,48.9230769 72,48.5538462 72,48 L72,47.0769231 L70.1538462,47.0769231 L70.1538462,48 C70.1538462,48.5538462 70.5230769,48.9230769 71.0769231,48.9230769 L71.0769231,48.9230769 Z" id="Shape"></path>
                                    <path d="M73.8461538,48.9230769 C74.4,48.9230769 74.7692308,48.5538462 74.7692308,48 L74.7692308,47.0769231 L72.9230769,47.0769231 L72.9230769,48 C72.9230769,48.5538462 73.2923077,48.9230769 73.8461538,48.9230769 L73.8461538,48.9230769 Z" id="Shape"></path>
                                    <path d="M68.3076923,48.9230769 C68.8615385,48.9230769 69.2307692,48.5538462 69.2307692,48 L69.2307692,47.0769231 L67.3846154,47.0769231 L67.3846154,48 C67.3846154,48.5538462 67.7538462,48.9230769 68.3076923,48.9230769 L68.3076923,48.9230769 Z" id="Shape"></path>
                                    <path d="M65.5384615,48.9230769 C66.0923077,48.9230769 66.4615385,48.5538462 66.4615385,48 L66.4615385,47.0769231 L64.6153846,47.0769231 L64.6153846,48 C64.6153846,48.5538462 64.9846154,48.9230769 65.5384615,48.9230769 L65.5384615,48.9230769 Z" id="Shape"></path>
                                    <path d="M62.7692308,48.9230769 C63.3230769,48.9230769 63.6923077,48.5538462 63.6923077,48 L63.6923077,47.0769231 L61.8461538,47.0769231 L61.8461538,48 C61.8461538,48.5538462 62.2153846,48.9230769 62.7692308,48.9230769 L62.7692308,48.9230769 Z" id="Shape"></path>
                                    <path d="M60,48.9230769 C60.5538462,48.9230769 60.9230769,48.5538462 60.9230769,48 L60.9230769,47.0769231 L59.0769231,47.0769231 L59.0769231,48 C59.0769231,48.5538462 59.4461538,48.9230769 60,48.9230769 L60,48.9230769 Z" id="Shape"></path>
                                    <path d="M57.2307692,48.9230769 C57.7846154,48.9230769 58.1538462,48.5538462 58.1538462,48 L58.1538462,47.0769231 L56.3076923,47.0769231 L56.3076923,48 C56.3076923,48.5538462 56.6769231,48.9230769 57.2307692,48.9230769 L57.2307692,48.9230769 Z" id="Shape"></path>
                                    <path d="M54.4615385,48.9230769 C55.0153846,48.9230769 55.3846154,48.5538462 55.3846154,48 L55.3846154,47.0769231 L53.5384615,47.0769231 L53.5384615,48 C53.5384615,48.5538462 53.9076923,48.9230769 54.4615385,48.9230769 L54.4615385,48.9230769 Z" id="Shape"></path>
                                    <path d="M51.6923077,48.9230769 C52.2461538,48.9230769 52.6153846,48.5538462 52.6153846,48 L52.6153846,47.0769231 L50.7692308,47.0769231 L50.7692308,48 C50.7692308,48.5538462 51.1384615,48.9230769 51.6923077,48.9230769 L51.6923077,48.9230769 Z" id="Shape"></path>
                                    <path d="M48.9230769,48.9230769 C49.4769231,48.9230769 49.8461538,48.5538462 49.8461538,48 L49.8461538,47.0769231 L48,47.0769231 L48,48 C48,48.5538462 48.3692308,48.9230769 48.9230769,48.9230769 L48.9230769,48.9230769 Z" id="Shape"></path>
                                    <path d="M46.1538462,48.9230769 C46.7076923,48.9230769 47.0769231,48.5538462 47.0769231,48 L47.0769231,47.0769231 L45.2307692,47.0769231 L45.2307692,48 C45.2307692,48.5538462 45.6,48.9230769 46.1538462,48.9230769 L46.1538462,48.9230769 Z" id="Shape"></path>
                                    <path d="M43.3846154,48.9230769 C43.9384615,48.9230769 44.3076923,48.5538462 44.3076923,48 L44.3076923,47.0769231 L42.4615385,47.0769231 L42.4615385,48 C42.4615385,48.5538462 42.8307692,48.9230769 43.3846154,48.9230769 L43.3846154,48.9230769 Z" id="Shape"></path>
                                    <path d="M40.6153846,48.9230769 C41.1692308,48.9230769 41.5384615,48.5538462 41.5384615,48 L41.5384615,47.0769231 L39.6923077,47.0769231 L39.6923077,48 C39.6923077,48.5538462 40.0615385,48.9230769 40.6153846,48.9230769 L40.6153846,48.9230769 Z" id="Shape"></path>
                                    <path d="M37.8461538,48.9230769 C38.4,48.9230769 38.7692308,48.5538462 38.7692308,48 L38.7692308,47.0769231 L36.9230769,47.0769231 L36.9230769,48 C36.9230769,48.5538462 37.2923077,48.9230769 37.8461538,48.9230769 L37.8461538,48.9230769 Z" id="Shape"></path>
                                    <path d="M75.6923077,37.8461538 L36,37.8461538 C35.4461538,37.8461538 35.0769231,38.2153846 35.0769231,38.7692308 L35.0769231,45.2307692 C35.0769231,45.7846154 35.4461538,46.1538462 36,46.1538462 L75.6923077,46.1538462 C76.2461538,46.1538462 76.6153846,45.7846154 76.6153846,45.2307692 L76.6153846,38.7692308 C76.6153846,38.2153846 76.2461538,37.8461538 75.6923077,37.8461538 L75.6923077,37.8461538 Z M75.6923077,43.8461538 C74.6769231,43.8461538 73.8461538,43.0153846 73.8461538,42 C73.8461538,40.9846154 74.6769231,40.1538462 75.6923077,40.1538462 L75.6923077,43.8461538 L75.6923077,43.8461538 Z" id="Shape"></path>
                                    <path d="M27.8769231,18.5538462 C27.8769231,26.5846154 38.9538462,29.6307692 44.4,21.4153846 C50.0307692,29.9076923 60.6461538,26.3076923 60.6461538,18.5538462 C60.6461538,10.8 50.1230769,7.01538462 44.4,15.6923077 C39.0461538,7.10769231 27.8769231,10.5230769 27.8769231,18.5538462 L27.8769231,18.5538462 L27.8769231,18.5538462 Z M30.8307692,18.5538462 C30.8307692,12.7384615 39.0461538,10.8923077 42.8307692,18.5538462 C38.9538462,25.8461538 30.8307692,24.3692308 30.8307692,18.5538462 L30.8307692,18.5538462 L30.8307692,18.5538462 Z M46.0615385,18.5538462 C49.4769231,10.8 57.9692308,12.9230769 57.8769231,18.5538462 C57.8769231,24.1846154 49.3846154,25.9384615 46.0615385,18.5538462 L46.0615385,18.5538462 Z" id="Shape"></path>
                                    <rect id="Rectangle-path" x="33.8769231" y="17.7230769" width="4.89230769" height="1.56923077"></rect>
                                    <path d="M51.6,19.2923077 L49.9384615,19.2923077 L49.9384615,17.6307692 L51.6,17.6307692 L51.6,15.9692308 L53.2615385,15.9692308 L53.2615385,17.6307692 L54.8307692,17.6307692 L54.8307692,19.2923077 L53.2615385,19.2923077 L53.2615385,20.8615385 L51.6,20.8615385 L51.6,19.2923077 Z" id="Shape"></path>
                                </g>
                            </g>
                        </g>
                    </g>
                </g>
            </g>
        </g>
    </g>
</svg>