<?xml version="1.0" encoding="UTF-8" standalone="no"?>
<svg width="233px" height="169px" viewBox="0 0 233 169" version="1.1" xmlns="http://www.w3.org/2000/svg" xmlns:xlink="http://www.w3.org/1999/xlink" xmlns:sketch="http://www.bohemiancoding.com/sketch/ns">
    <!-- Generator: Sketch 3.4.3 (16044) - http://www.bohemiancoding.com/sketch -->
    <title>Everything</title>
    <desc>Created with Sketch.</desc>
    <defs></defs>
    <g id="Page-1" stroke="none" stroke-width="1" fill="none" fill-rule="evenodd" sketch:type="MSPage">
        <g id="Tablet-Portrait" sketch:type="MSArtboardGroup" transform="translate(-263.000000, -676.000000)">
            <g id="Everything" sketch:type="MSLayerGroup" transform="translate(263.000000, 676.000000)">
                <rect id="Rectangle-60" fill="#FFF176" sketch:type="MSShapeGroup" x="0" y="0" width="233" height="169"></rect>
                <g id="Group" transform="translate(48.000000, 6.000000)" sketch:type="MSShapeGroup">
                    <path d="M45.7417324,145.585877 C53.9451868,149.690364 63.2028712,152 73,152 C106.68937,152 134,124.68937 134,91 C134,57.3106303 106.68937,30 73,30 C39.3106303,30 12,57.3106303 12,91" id="Oval-1" stroke="#979797" stroke-width="10"></path>
                    <polygon id="Triangle-1" fill="#9B9B9B" transform="translate(40.124714, 142.105106) rotate(-62.000000) translate(-40.124714, -142.105106) " points="40.1247143 129.105106 53.1247143 155.105106 27.1247143 155.105106 "></polygon>
                    <rect id="Rectangle-59" fill="#FFF176" x="108" y="62" width="44" height="78" rx="7"></rect>
                    <ellipse id="Oval-2" fill="#FFF176" cx="45.5" cy="33" rx="15.5" ry="16"></ellipse>
                    <ellipse id="Oval-2-Copy" fill="#FFF176" cx="98.5" cy="33" rx="15.5" ry="16"></ellipse>
                    <rect id="Rectangle-58" fill="#FFF176" x="0" y="69" width="25" height="25"></rect>
                    <path id="Path-603" stroke="#979797" fill="#FFF176" d=""></path>
                </g>
                <g id="Group-Copy" transform="translate(0.000000, 6.000000)" fill="#4A4A4A" sketch:type="MSShapeGroup">
                    <g id="Shape-+-Arduino" transform="translate(0.000000, 22.000000)">
                        <path d="M38.6431888,6.37569338 L32.2883465,0 L31.6521232,0.638372712 L38.0069655,7.0140661 L38.6431888,6.37569338 L38.6431888,6.37569338 Z M44.5941014,6.37569338 L38.2392591,0 L37.6030358,0.638372712 L43.9578781,7.0140661 L44.5941014,6.37569338 L44.5941014,6.37569338 Z M44.1901718,0 L43.5539485,0.638372712 L49.9087908,7.0140661 L50.5450141,6.37569338 L44.1901718,0 Z M46.244327,19.1415912 L46.2443271,35 L44.3966312,35 L44.396631,19.1415912 L39.0931277,19.1415912 L39.0931279,35 L37.2454319,35 L37.2454318,19.1415912 L30,19.1415912 L30,11.0256679 L33.8604528,11.0256679 L49.6299219,11.0256679 L53.4903746,11.0256679 L53.4903746,19.1415912 L46.244327,19.1415912 Z M51.6420628,12.879606 L49.629306,12.879606 L33.8604528,12.879606 L31.847696,12.879606 L31.847696,17.287653 L51.6420628,17.287653 L51.6420628,12.879606 L51.6420628,12.879606 Z" id="Shape-Copy"></path>
                        <g id="Arduino-Copy" transform="translate(0.000000, 51.000000)">
                            <g id="Group">
                                <g>
                                    <path d="M78.4615385,60 L9.23076923,60 C8.21538462,60 7.38461538,59.1692308 7.38461538,58.1538462 L7.38461538,57.2307692 C7.38461538,56.2153846 8.21538462,55.3846154 9.23076923,55.3846154 C9.87692308,55.3846154 10.5230769,55.7538462 10.8,56.3076923 L77.6307692,56.3076923 L79.2923077,54.6461538 L79.2923077,18.2769231 L77.0769231,16.0615385 C76.8,15.6923077 76.6153846,15.2307692 76.6153846,14.7692308 L76.6153846,3.69230769 L11.0769231,3.69230769 L11.0769231,9.23076923 C11.0769231,10.2461538 10.2461538,11.0769231 9.23076923,11.0769231 C8.21538462,11.0769231 7.38461538,10.2461538 7.38461538,9.23076923 L7.38461538,1.84615385 C7.38461538,0.830769231 8.21538462,0 9.23076923,0 L78.4615385,0 C79.4769231,0 80.3076923,0.830769231 80.3076923,1.84615385 L80.3076923,14.0307692 L82.5230769,16.2461538 C82.8923077,16.6153846 83.0769231,17.0769231 83.0769231,17.5384615 L83.0769231,55.3846154 C83.0769231,55.8461538 82.8923077,56.3076923 82.5230769,56.6769231 L79.7538462,59.4461538 C79.3846154,59.8153846 78.9230769,60 78.4615385,60 L78.4615385,60 Z" id="Shape"></path>
                                    <path d="M9.23076923,43.3846154 C8.21538462,43.3846154 7.38461538,42.5538462 7.38461538,41.5384615 L7.38461538,27.6923077 C7.38461538,26.6769231 8.21538462,25.8461538 9.23076923,25.8461538 C10.2461538,25.8461538 11.0769231,26.6769231 11.0769231,27.6923077 L11.0769231,41.5384615 C11.0769231,42.5538462 10.2461538,43.3846154 9.23076923,43.3846154 L9.23076923,43.3846154 Z" id="Shape"></path>
                                    <path d="M16.1538462,24.9230769 L1.38461538,24.9230769 C0.646153846,24.9230769 0,24.2769231 0,23.5384615 L0,13.3846154 C0,12.6461538 0.646153846,12 1.38461538,12 L16.1538462,12 C16.8923077,12 17.5384615,12.6461538 17.5384615,13.3846154 L17.5384615,23.5384615 C17.5384615,24.2769231 16.8923077,24.9230769 16.1538462,24.9230769 L16.1538462,24.9230769 Z" id="Shape"></path>
                                    <path d="M18.9230769,54.4615385 L6,54.4615385 C5.26153846,54.4615385 4.61538462,53.8153846 4.61538462,53.0769231 L4.61538462,45.6923077 C4.61538462,44.9538462 5.26153846,44.3076923 6,44.3076923 L18.9230769,44.3076923 C19.6615385,44.3076923 20.3076923,44.9538462 20.3076923,45.6923077 L20.3076923,53.0769231 C20.3076923,53.8153846 19.6615385,54.4615385 18.9230769,54.4615385 L18.9230769,54.4615385 Z" id="Shape"></path>
                                    <path d="M40.6153846,35.0769231 C40.0615385,35.0769231 39.6923077,35.4461538 39.6923077,36 L39.6923077,36.9230769 L41.5384615,36.9230769 L41.5384615,36 C41.5384615,35.4461538 41.1692308,35.0769231 40.6153846,35.0769231 L40.6153846,35.0769231 Z" id="Shape"></path>
                                    <path d="M37.8461538,35.0769231 C37.2923077,35.0769231 36.9230769,35.4461538 36.9230769,36 L36.9230769,36.9230769 L38.7692308,36.9230769 L38.7692308,36 C38.7692308,35.4461538 38.4,35.0769231 37.8461538,35.0769231 L37.8461538,35.0769231 Z" id="Shape"></path>
                                    <path d="M43.3846154,35.0769231 C42.8307692,35.0769231 42.4615385,35.4461538 42.4615385,36 L42.4615385,36.9230769 L44.3076923,36.9230769 L44.3076923,36 C44.3076923,35.4461538 43.9384615,35.0769231 43.3846154,35.0769231 L43.3846154,35.0769231 Z" id="Shape"></path>
                                    <path d="M46.1538462,35.0769231 C45.6,35.0769231 45.2307692,35.4461538 45.2307692,36 L45.2307692,36.9230769 L47.0769231,36.9230769 L47.0769231,36 C47.0769231,35.4461538 46.7076923,35.0769231 46.1538462,35.0769231 L46.1538462,35.0769231 Z" id="Shape"></path>
                                    <path d="M48.9230769,35.0769231 C48.3692308,35.0769231 48,35.4461538 48,36 L48,36.9230769 L49.8461538,36.9230769 L49.8461538,36 C49.8461538,35.4461538 49.4769231,35.0769231 48.9230769,35.0769231 L48.9230769,35.0769231 Z" id="Shape"></path>
                                    <path d="M51.6923077,35.0769231 C51.1384615,35.0769231 50.7692308,35.4461538 50.7692308,36 L50.7692308,36.9230769 L52.6153846,36.9230769 L52.6153846,36 C52.6153846,35.4461538 52.2461538,35.0769231 51.6923077,35.0769231 L51.6923077,35.0769231 Z" id="Shape"></path>
                                    <path d="M54.4615385,35.0769231 C53.9076923,35.0769231 53.5384615,35.4461538 53.5384615,36 L53.5384615,36.9230769 L55.3846154,36.9230769 L55.3846154,36 C55.3846154,35.4461538 55.0153846,35.0769231 54.4615385,35.0769231 L54.4615385,35.0769231 Z" id="Shape"></path>
                                    <path d="M57.2307692,35.0769231 C56.6769231,35.0769231 56.3076923,35.4461538 56.3076923,36 L56.3076923,36.9230769 L58.1538462,36.9230769 L58.1538462,36 C58.1538462,35.4461538 57.7846154,35.0769231 57.2307692,35.0769231 L57.2307692,35.0769231 Z" id="Shape"></path>
                                    <path d="M60,35.0769231 C59.4461538,35.0769231 59.0769231,35.4461538 59.0769231,36 L59.0769231,36.9230769 L60.9230769,36.9230769 L60.9230769,36 C60.9230769,35.4461538 60.5538462,35.0769231 60,35.0769231 L60,35.0769231 Z" id="Shape"></path>
                                    <path d="M62.7692308,35.0769231 C62.2153846,35.0769231 61.8461538,35.4461538 61.8461538,36 L61.8461538,36.9230769 L63.6923077,36.9230769 L63.6923077,36 C63.6923077,35.4461538 63.3230769,35.0769231 62.7692308,35.0769231 L62.7692308,35.0769231 Z" id="Shape"></path>
                                    <path d="M65.5384615,35.0769231 C64.9846154,35.0769231 64.6153846,35.4461538 64.6153846,36 L64.6153846,36.9230769 L66.4615385,36.9230769 L66.4615385,36 C66.4615385,35.4461538 66.0923077,35.0769231 65.5384615,35.0769231 L65.5384615,35.0769231 Z" id="Shape"></path>
                                    <path d="M68.3076923,35.0769231 C67.7538462,35.0769231 67.3846154,35.4461538 67.3846154,36 L67.3846154,36.9230769 L69.2307692,36.9230769 L69.2307692,36 C69.2307692,35.4461538 68.8615385,35.0769231 68.3076923,35.0769231 L68.3076923,35.0769231 Z" id="Shape"></path>
                                    <path d="M71.0769231,35.0769231 C70.5230769,35.0769231 70.1538462,35.4461538 70.1538462,36 L70.1538462,36.9230769 L72,36.9230769 L72,36 C72,35.4461538 71.6307692,35.0769231 71.0769231,35.0769231 L71.0769231,35.0769231 Z" id="Shape"></path>
                                    <path d="M73.8461538,35.0769231 C73.2923077,35.0769231 72.9230769,35.4461538 72.9230769,36 L72.9230769,36.9230769 L74.7692308,36.9230769 L74.7692308,36 C74.7692308,35.4461538 74.4,35.0769231 73.8461538,35.0769231 L73.8461538,35.0769231 Z" id="Shape"></path>
                                    <path d="M71.0769231,48.9230769 C71.6307692,48.9230769 72,48.5538462 72,48 L72,47.0769231 L70.1538462,47.0769231 L70.1538462,48 C70.1538462,48.5538462 70.5230769,48.9230769 71.0769231,48.9230769 L71.0769231,48.9230769 Z" id="Shape"></path>
                                    <path d="M73.8461538,48.9230769 C74.4,48.9230769 74.7692308,48.5538462 74.7692308,48 L74.7692308,47.0769231 L72.9230769,47.0769231 L72.9230769,48 C72.9230769,48.5538462 73.2923077,48.9230769 73.8461538,48.9230769 L73.8461538,48.9230769 Z" id="Shape"></path>
                                    <path d="M68.3076923,48.9230769 C68.8615385,48.9230769 69.2307692,48.5538462 69.2307692,48 L69.2307692,47.0769231 L67.3846154,47.0769231 L67.3846154,48 C67.3846154,48.5538462 67.7538462,48.9230769 68.3076923,48.9230769 L68.3076923,48.9230769 Z" id="Shape"></path>
                                    <path d="M65.5384615,48.9230769 C66.0923077,48.9230769 66.4615385,48.5538462 66.4615385,48 L66.4615385,47.0769231 L64.6153846,47.0769231 L64.6153846,48 C64.6153846,48.5538462 64.9846154,48.9230769 65.5384615,48.9230769 L65.5384615,48.9230769 Z" id="Shape"></path>
                                    <path d="M62.7692308,48.9230769 C63.3230769,48.9230769 63.6923077,48.5538462 63.6923077,48 L63.6923077,47.0769231 L61.8461538,47.0769231 L61.8461538,48 C61.8461538,48.5538462 62.2153846,48.9230769 62.7692308,48.9230769 L62.7692308,48.9230769 Z" id="Shape"></path>
                                    <path d="M60,48.9230769 C60.5538462,48.9230769 60.9230769,48.5538462 60.9230769,48 L60.9230769,47.0769231 L59.0769231,47.0769231 L59.0769231,48 C59.0769231,48.5538462 59.4461538,48.9230769 60,48.9230769 L60,48.9230769 Z" id="Shape"></path>
                                    <path d="M57.2307692,48.9230769 C57.7846154,48.9230769 58.1538462,48.5538462 58.1538462,48 L58.1538462,47.0769231 L56.3076923,47.0769231 L56.3076923,48 C56.3076923,48.5538462 56.6769231,48.9230769 57.2307692,48.9230769 L57.2307692,48.9230769 Z" id="Shape"></path>
                                    <path d="M54.4615385,48.9230769 C55.0153846,48.9230769 55.3846154,48.5538462 55.3846154,48 L55.3846154,47.0769231 L53.5384615,47.0769231 L53.5384615,48 C53.5384615,48.5538462 53.9076923,48.9230769 54.4615385,48.9230769 L54.4615385,48.9230769 Z" id="Shape"></path>
                                    <path d="M51.6923077,48.9230769 C52.2461538,48.9230769 52.6153846,48.5538462 52.6153846,48 L52.6153846,47.0769231 L50.7692308,47.0769231 L50.7692308,48 C50.7692308,48.5538462 51.1384615,48.9230769 51.6923077,48.9230769 L51.6923077,48.9230769 Z" id="Shape"></path>
                                    <path d="M48.9230769,48.9230769 C49.4769231,48.9230769 49.8461538,48.5538462 49.8461538,48 L49.8461538,47.0769231 L48,47.0769231 L48,48 C48,48.5538462 48.3692308,48.9230769 48.9230769,48.9230769 L48.9230769,48.9230769 Z" id="Shape"></path>
                                    <path d="M46.1538462,48.9230769 C46.7076923,48.9230769 47.0769231,48.5538462 47.0769231,48 L47.0769231,47.0769231 L45.2307692,47.0769231 L45.2307692,48 C45.2307692,48.5538462 45.6,48.9230769 46.1538462,48.9230769 L46.1538462,48.9230769 Z" id="Shape"></path>
                                    <path d="M43.3846154,48.9230769 C43.9384615,48.9230769 44.3076923,48.5538462 44.3076923,48 L44.3076923,47.0769231 L42.4615385,47.0769231 L42.4615385,48 C42.4615385,48.5538462 42.8307692,48.9230769 43.3846154,48.9230769 L43.3846154,48.9230769 Z" id="Shape"></path>
                                    <path d="M40.6153846,48.9230769 C41.1692308,48.9230769 41.5384615,48.5538462 41.5384615,48 L41.5384615,47.0769231 L39.6923077,47.0769231 L39.6923077,48 C39.6923077,48.5538462 40.0615385,48.9230769 40.6153846,48.9230769 L40.6153846,48.9230769 Z" id="Shape"></path>
                                    <path d="M37.8461538,48.9230769 C38.4,48.9230769 38.7692308,48.5538462 38.7692308,48 L38.7692308,47.0769231 L36.9230769,47.0769231 L36.9230769,48 C36.9230769,48.5538462 37.2923077,48.9230769 37.8461538,48.9230769 L37.8461538,48.9230769 Z" id="Shape"></path>
                                    <path d="M75.6923077,37.8461538 L36,37.8461538 C35.4461538,37.8461538 35.0769231,38.2153846 35.0769231,38.7692308 L35.0769231,45.2307692 C35.0769231,45.7846154 35.4461538,46.1538462 36,46.1538462 L75.6923077,46.1538462 C76.2461538,46.1538462 76.6153846,45.7846154 76.6153846,45.2307692 L76.6153846,38.7692308 C76.6153846,38.2153846 76.2461538,37.8461538 75.6923077,37.8461538 L75.6923077,37.8461538 Z M75.6923077,43.8461538 C74.6769231,43.8461538 73.8461538,43.0153846 73.8461538,42 C73.8461538,40.9846154 74.6769231,40.1538462 75.6923077,40.1538462 L75.6923077,43.8461538 L75.6923077,43.8461538 Z" id="Shape"></path>
                                    <path d="M27.8769231,18.5538462 C27.8769231,26.5846154 38.9538462,29.6307692 44.4,21.4153846 C50.0307692,29.9076923 60.6461538,26.3076923 60.6461538,18.5538462 C60.6461538,10.8 50.1230769,7.01538462 44.4,15.6923077 C39.0461538,7.10769231 27.8769231,10.5230769 27.8769231,18.5538462 L27.8769231,18.5538462 L27.8769231,18.5538462 Z M30.8307692,18.5538462 C30.8307692,12.7384615 39.0461538,10.8923077 42.8307692,18.5538462 C38.9538462,25.8461538 30.8307692,24.3692308 30.8307692,18.5538462 L30.8307692,18.5538462 L30.8307692,18.5538462 Z M46.0615385,18.5538462 C49.4769231,10.8 57.9692308,12.9230769 57.8769231,18.5538462 C57.8769231,24.1846154 49.3846154,25.9384615 46.0615385,18.5538462 L46.0615385,18.5538462 Z" id="Shape"></path>
                                    <rect id="Rectangle-path" x="33.8769231" y="17.7230769" width="4.89230769" height="1.56923077"></rect>
                                    <path d="M51.6,19.2923077 L49.9384615,19.2923077 L49.9384615,17.6307692 L51.6,17.6307692 L51.6,15.9692308 L53.2615385,15.9692308 L53.2615385,17.6307692 L54.8307692,17.6307692 L54.8307692,19.2923077 L53.2615385,19.2923077 L53.2615385,20.8615385 L51.6,20.8615385 L51.6,19.2923077 Z" id="Shape"></path>
                                </g>
                            </g>
                        </g>
                    </g>
                    <g id="Cloud-+-Messaging" transform="translate(84.000000, 0.000000)">
                        <g id="Cloud-Copy">
                            <g id="Group">
                                <path d="M62.3101695,43.164419 C69.1042373,43.164419 74.6118644,37.7168 74.6118644,30.9977905 C74.6118644,24.8897524 70.0610169,19.8352 64.129661,18.964419 C64.3915254,17.8698667 64.5313559,16.728381 64.5313559,15.5533714 C64.5313559,7.41546667 57.8610169,0.819657143 49.6330508,0.819657143 C45.6737288,0.819657143 42.0771186,2.34750476 39.4084746,4.8391619 C36.8898305,3.48647619 34.0033898,2.71878095 30.9364407,2.71878095 C21.6186441,2.71878095 13.9762712,9.80990476 13.2245763,18.832 L12.3008475,18.832 C5.50762712,18.832 0,24.279619 0,30.9977905 C0,37.7176381 5.50762712,43.164419 12.3016949,43.164419 L62.3101695,43.164419 Z" id="Shape"></path>
                            </g>
                        </g>
                    </g>
                    <g id="Apps-Copy" transform="translate(159.000000, 66.000000)">
                        <g id="Group">
                            <path d="M40.2391765,17.6558824 L40.2391765,2.81682353 C40.2391765,2.04564706 39.8893059,1.35564706 39.3381176,0.901058824 C39.2163529,0.803647059 39.0864706,0.714352941 38.9492824,0.633176471 C38.5994118,0.446470588 38.1935294,0.332823529 37.7632941,0.332823529 L3.10905882,0.332823529 C1.74529412,0.332823529 0.633176471,1.44494118 0.633176471,2.81682353 L0.633176471,64.6976471 C0.633176471,66.0687176 1.74529412,67.1735294 3.10905882,67.1735294 L37.7632941,67.1735294 C39.1351765,67.1735294 40.2399882,66.0695294 40.2399882,64.6976471 L40.2399882,46.4978824 L36.7331647,46.4978824 L36.7331647,55.1025882 L4.14,55.1025882 L4.14,4.35917647 L36.7323529,4.35917647 L36.7323529,17.6558824 L40.2391765,17.6558824 L40.2391765,17.6558824 Z M20.4321176,57.27 C22.4047059,57.27 23.9957647,58.8691765 23.9957647,60.8344588 C23.9957647,62.7989294 22.4047059,64.3899882 20.4321176,64.3899882 C18.4676471,64.3899882 16.8765882,62.7989294 16.8765882,60.8344588 C16.8765882,58.8691765 18.4676471,57.27 20.4321176,57.27 L20.4321176,57.27 Z" id="Shape"></path>
                            <path d="M27.7055294,29.7268235 L27.7055294,40.7749412 C27.7055294,41.7401294 26.9262353,42.5275412 25.9602353,42.5275412 L14.9121176,42.5275412 C13.9461176,42.5275412 13.1587059,41.7401294 13.1587059,40.7749412 L13.1587059,29.7268235 C13.1587059,28.7608235 13.9461176,27.9734118 14.9121176,27.9734118 L25.9602353,27.9734118 C26.9262353,27.9734118 27.7055294,28.7608235 27.7055294,29.7268235 L27.7055294,29.7268235 Z" id="Shape"></path>
                            <path d="M68.5454118,12.0222353 L68.5454118,26.5365882 C68.5454118,27.8110588 67.5136588,28.842 66.2481176,28.842 L58.6905882,28.842 L58.6905882,22.356 C58.6905882,19.7664706 56.58,17.6558824 53.9904706,17.6558824 L49.4364706,17.6558824 L49.4364706,12.0222353 C49.4364706,10.7558824 50.4674118,9.72494118 51.7337647,9.72494118 L66.2481176,9.72494118 C67.5144706,9.72494118 68.5454118,10.7558824 68.5454118,12.0222353 L68.5454118,12.0222353 Z" id="Shape"></path>
                            <path d="M57.0670588,22.356 L57.0670588,37.3736471 L51.5389412,37.3736471 C49.68,37.3736471 48.1701176,38.8916471 48.1701176,40.7505882 L48.1701176,44.8743529 L34.5487059,44.8743529 C32.844,44.8743529 31.4721176,43.5024706 31.4721176,41.7977647 L31.4721176,22.356 C31.4721176,20.6594118 32.844,19.2794118 34.5487059,19.2794118 L53.9904706,19.2794118 C55.6870588,19.2794118 57.0670588,20.6594118 57.0670588,22.356 L57.0670588,22.356 Z" id="Shape"></path>
                            <path d="M64.3323529,40.7505882 L64.3323529,51.7987059 C64.3323529,52.7647059 63.5530588,53.5521176 62.5870588,53.5521176 L51.5389412,53.5521176 C50.5729412,53.5521176 49.7936471,52.7647059 49.7936471,51.7987059 L49.7936471,40.7505882 C49.7936471,39.7845882 50.5729412,38.9971765 51.5389412,38.9971765 L62.5870588,38.9971765 C63.5530588,38.9971765 64.3323529,39.7845882 64.3323529,40.7505882 L64.3323529,40.7505882 Z" id="Shape"></path>
                        </g>
                    </g>
                </g>
            </g>
        </g>
    </g>
</svg>