<?xml version="1.0" encoding="UTF-8" standalone="no"?>
<svg width="88px" height="88px" viewBox="0 0 88 88" version="1.1" xmlns="http://www.w3.org/2000/svg" xmlns:xlink="http://www.w3.org/1999/xlink" xmlns:sketch="http://www.bohemiancoding.com/sketch/ns">
    <!-- Generator: Sketch 3.4.3 (16044) - http://www.bohemiancoding.com/sketch -->
    <title>Group</title>
    <desc>Created with Sketch.</desc>
    <defs></defs>
    <g id="Page-1" stroke="none" stroke-width="1" fill="none" fill-rule="evenodd" sketch:type="MSPage">
        <g id="Group" sketch:type="MSLayerGroup" transform="translate(-3.000000, -3.000000)" fill="#FFFFFF">
            <path d="M78,66.805 L78,66.767 C80.566,64.85 82.234,61.822 82.234,58.41 L82.26,46.524 C82.26,43.768 79.886,41.428 76.999,41.241 L76.999,34.9 C76.999,31.87 74.85,29.586 71.999,29.586 C71.654,29.586 71.321,29.623 70.999,29.687 L70.999,28.799 C70.999,25.769 68.85,23.485 65.999,23.485 C64.382,23.485 63.009,24.236 62.106,25.425 C61.553,25.247 60.971,25.143 60.39,25.143 C57.576,25.143 55.285,27.289 55.045,30.005 C55.031,30.004 55.016,30 55,30 L54.645,30 C51.585,30 49,32.371 49,35.177 L49,57.298 C49,63.382 53.634,68.389 59.527,68.931 C59.611,74.998 60.298,81.306 63.637,87.156 C58.35,89.364 52.718,90.481 46.914,90.481 C42.25,90.481 37.64,89.752 33.27,88.311 C37.599,82.044 38.14,75.36 38.175,70.114 C38.179,69.452 38.044,68.908 38.012,68.339 C39.001,68.125 40.05,67.842 40.905,67.186 C44.058,64.768 45.794,61.621 45.794,58.325 L45.805,46.413 C45.805,43.682 43.699,41.427 41,41.133 L41,34.66 C41,33.881 40.919,32.725 40.217,31.685 C39.169,30.132 37.771,29.345 36.062,29.345 C35.695,29.345 35.341,29.384 35,29.454 L35,28.66 C35,27.881 34.919,26.725 34.217,25.685 C33.169,24.132 31.771,23.345 30.062,23.345 C28.404,23.345 26.997,24.115 26.085,25.332 C25.548,25.165 24.998,25.066 24.464,25.066 C21.564,25.066 19.19,27.253 19.016,30.002 C19.011,30.001 19.006,30 19,30 L18.17,30 C15.174,30 13,32.119 13,35.038 L13,57.16 C13,61.727 15.616,65.861 19.606,67.779 C19.506,71.033 18.811,74.354 15.75,77.241 C7.858,69.097 3.519,58.432 3.519,47.041 C3.519,23.088 23.006,3.602 46.959,3.602 C70.911,3.602 90.398,23.089 90.398,47.041 C90.398,57.484 86.682,67.464 79.91,75.34 C77.894,72.742 78,69.959 78,66.805 Z M35.174,16.247 C34.611,16.854 34.647,17.804 35.255,18.367 L40.443,23.175 C40.732,23.443 41.097,23.575 41.462,23.575 C41.865,23.575 42.267,23.413 42.563,23.095 C43.126,22.488 43.09,21.538 42.482,20.975 L37.294,16.166 C36.686,15.602 35.736,15.639 35.174,16.247 Z M46.615,11 L46.609,11 C45.783,11 45.112,11.719 45.109,12.545 L45.079,19.67 C45.075,20.498 45.744,21 46.572,21 L46.578,21 C47.404,21 48.075,20.439 48.078,19.613 L48.108,12.647 C48.112,11.818 47.443,11 46.615,11 Z M55.894,16.246 L50.665,21.009 C50.053,21.567 50.008,22.515 50.565,23.128 C50.862,23.453 51.267,23.618 51.674,23.618 C52.035,23.618 52.397,23.489 52.684,23.227 L57.913,18.464 C58.525,17.906 58.57,16.958 58.013,16.345 C57.452,15.731 56.504,15.689 55.894,16.246 Z" id="Path" sketch:type="MSShapeGroup"></path>
            <path d="M52,47.361 L52,35.177 C52,33.894 53.394,33 54.645,33 L55,33 L55,46 C55,46.046 55.01,46.09 55.014,46.135 C53.875,46.334 52.861,46.759 52,47.361 L52,47.361 Z" id="Path" sketch:type="MSShapeGroup"></path>
            <path d="M58,46 L58,30.461 C58,29.204 59.096,28.143 60.392,28.143 C60.612,28.143 60.835,28.177 61.051,28.234 C61.033,28.421 61,28.603 61,28.797 L61,46 L58,46 L58,46 Z" id="Path" sketch:type="MSShapeGroup"></path>
            <path d="M67,46 L64,46 L64,28.797 C64,27.683 64.626,26.484 66,26.484 C67.374,26.484 68,27.684 68,28.798 L68,31.666 C67.376,32.552 67,33.656 67,34.899 L67,46 L67,46 Z" id="Path" sketch:type="MSShapeGroup"></path>
        </g>
    </g>
</svg>