<?xml version="1.0" encoding="UTF-8" standalone="no"?>
<svg width="37px" height="38px" viewBox="0 0 37 38" version="1.1" xmlns="http://www.w3.org/2000/svg" xmlns:xlink="http://www.w3.org/1999/xlink" xmlns:sketch="http://www.bohemiancoding.com/sketch/ns">
    <!-- Generator: Sketch 3.4.1 (15681) - http://www.bohemiancoding.com/sketch -->
    <title>icon-github</title>
    <desc>Created with Sketch.</desc>
    <defs></defs>
    <g id="Page-1" stroke="none" stroke-width="1" fill="none" fill-rule="evenodd" sketch:type="MSPage">
        <g id="Version-3" sketch:type="MSArtboardGroup" transform="translate(-1153.000000, -30.000000)" fill="#F6FEFD">
            <g id="Masthead" sketch:type="MSLayerGroup">
                <path d="M1171.4518,30 C1161.26298,30 1153,38.6979279 1153,49.4281153 C1153,58.0115497 1158.28699,65.2926205 1165.61991,67.8615684 C1166.54318,68.0404645 1166.87963,67.4405662 1166.87963,66.9253455 C1166.87963,66.4637936 1166.86377,65.2425296 1166.85471,63.621731 C1161.72178,64.7952894 1160.63878,61.017004 1160.63878,61.017004 C1159.79934,58.7724544 1158.58946,58.1749414 1158.58946,58.1749414 C1156.91398,56.9703744 1158.71634,56.9942273 1158.71634,56.9942273 C1160.56855,57.1313809 1161.54279,58.9966708 1161.54279,58.9966708 C1163.18882,61.9651533 1165.86234,61.1076447 1166.91362,60.6103135 C1167.08128,59.3556556 1167.55821,58.4993397 1168.08498,58.013935 C1163.98748,57.5237597 1159.67926,55.8564481 1159.67926,48.4119855 C1159.67926,46.2914705 1160.39862,44.5561785 1161.57904,43.1989535 C1161.38873,42.7075856 1160.75547,40.7313801 1161.7603,38.0574799 C1161.7603,38.0574799 1163.3089,37.5351033 1166.83432,40.0491897 C1168.30589,39.6174538 1169.88507,39.4027785 1171.45407,39.39443 C1173.02192,39.4027785 1174.59998,39.6174538 1176.07381,40.0491897 C1179.59696,37.5351033 1181.1433,38.0574799 1181.1433,38.0574799 C1182.1504,40.7313801 1181.51714,42.7075856 1181.32795,43.1989535 C1182.51064,44.5561785 1183.22434,46.2914705 1183.22434,48.4119855 C1183.22434,55.8755304 1178.90933,57.5177965 1174.79936,57.9984306 C1175.46094,58.5983289 1176.05116,59.7838136 1176.05116,61.5954347 C1176.05116,64.1930059 1176.0285,66.2884754 1176.0285,66.9253455 C1176.0285,67.4453368 1176.36156,68.0500056 1177.29729,67.8603757 C1184.62454,65.2854647 1189.907,58.0091644 1189.907,49.4281153 C1189.907,38.6979279 1181.64402,30 1171.4518,30" id="icon-github" sketch:type="MSShapeGroup"></path>
            </g>
        </g>
    </g>
</svg>