<?xml version="1.0" encoding="UTF-8" standalone="no"?>
<svg width="37px" height="32px" viewBox="0 0 37 32" version="1.1" xmlns="http://www.w3.org/2000/svg" xmlns:xlink="http://www.w3.org/1999/xlink" xmlns:sketch="http://www.bohemiancoding.com/sketch/ns">
    <!-- Generator: Sketch 3.4.1 (15681) - http://www.bohemiancoding.com/sketch -->
    <title>icon-twitter</title>
    <desc>Created with Sketch.</desc>
    <defs>
        <path id="path-1" d="M0.00803392779,0.115511545 L36.606592,0.115511545 L36.606592,31.3286422 L0.00803392779,31.3286422"></path>
    </defs>
    <g id="Page-1" stroke="none" stroke-width="1" fill="none" fill-rule="evenodd" sketch:type="MSPage">
        <g id="Version-3" sketch:type="MSArtboardGroup" transform="translate(-1214.000000, -33.000000)">
            <g id="Masthead" sketch:type="MSLayerGroup">
                <g id="icon-twitter" transform="translate(1214.000000, 33.000000)">
                    <mask id="mask-2" sketch:name="Clip 2" fill="white">
                        <use xlink:href="#path-1"></use>
                    </mask>
                    <g id="Clip-2"></g>
                    <path d="M36.606592,3.81145942 C35.259704,4.43834141 33.812258,4.86202427 32.2930423,5.05257616 C33.8437242,4.07705165 35.0344862,2.53240092 35.5952544,0.691945071 C34.1441931,1.59509921 32.536872,2.25106988 30.8261809,2.60463077 C29.4561284,1.07276781 27.5042857,0.115511545 25.3442303,0.115511545 C21.1964473,0.115511545 17.8337129,3.64451572 17.8337129,7.99727742 C17.8337129,8.61502529 17.9002606,9.21661279 18.0282679,9.79346789 C11.7864416,9.46477993 6.2525382,6.32685681 2.5483619,1.55828166 C1.90189851,2.72239071 1.53153443,4.07634903 1.53153443,5.52080544 C1.53153443,8.25528131 2.85753422,10.6678144 4.8727111,12.0812148 C3.64151167,12.040322 2.48355488,11.6857775 1.47087828,11.095432 C1.47034268,11.1283148 1.47034268,11.1613382 1.47034268,11.1945021 C1.47034268,15.0134093 4.05914202,18.1991109 7.49485124,18.9230957 C6.8645896,19.1032488 6.20112106,19.1995084 5.51609482,19.1995084 C5.03218457,19.1995084 4.5616642,19.1501841 4.10319472,19.0581402 C5.05883043,22.1895992 7.8324101,24.4683525 11.1188222,24.5320103 C8.54850087,26.6459278 5.31015847,27.9060154 1.7915659,27.9060154 C1.18540605,27.9060154 0.587547919,27.8687763 0,27.7959844 C3.32363593,30.0322991 7.27137415,31.3370737 11.5126185,31.3370737 C25.3266896,31.3370737 32.8807241,19.326824 32.8807241,8.91125198 C32.8807241,8.56949519 32.8734935,8.22956523 32.8590325,7.89160262 C34.3262955,6.78033097 35.599673,5.39208455 36.606592,3.81145942" id="Fill-1" fill="#F6FEFD" sketch:type="MSShapeGroup" mask="url(#mask-2)"></path>
                </g>
            </g>
        </g>
    </g>
</svg>