<?xml version="1.0" encoding="UTF-8" standalone="no"?>
<svg width="346px" height="160px" viewBox="0 0 350 160" version="1.1" xmlns="http://www.w3.org/2000/svg" xmlns:xlink="http://www.w3.org/1999/xlink" xmlns:sketch="http://www.bohemiancoding.com/sketch/ns">
    <!-- Generator: Sketch 3.4.3 (16044) - http://www.bohemiancoding.com/sketch -->
    <title>os-logos</title>
    <desc>Created with Sketch.</desc>
    <defs></defs>
    <g id="Page-1" stroke="none" stroke-width="1" fill="none" fill-rule="evenodd" sketch:type="MSPage">
        <g id="Tablet-Portrait" sketch:type="MSArtboardGroup" transform="translate(-68.000000, -285.000000)">
            <g id="os-logos" sketch:type="MSLayerGroup" transform="translate(65.000000, 282.000000)">
                <g id="oshw-logo" transform="translate(174.000000, 6.000000)" stroke="#000000" stroke-width="6" sketch:type="MSShapeGroup">
                    <path d="M170.994322,73.198453 L149.884721,69.3138674 C149.36979,69.2185635 148.808631,68.7407735 148.635275,68.2502762 L142.164608,53.3117127 C141.923194,52.850442 141.968139,52.1261326 142.267338,51.6966298 L154.566612,33.9574033 C154.860675,33.530442 154.802889,32.881105 154.43178,32.5138674 L139.069886,17.3122652 C138.698776,16.9450276 138.043877,16.8853039 137.612413,17.1788398 L119.371529,29.5658011 C118.940066,29.859337 118.200414,29.9114365 117.730428,29.6827072 L103.096629,23.7548066 C102.599675,23.5921547 102.115563,23.0419337 102.01797,22.5323757 L97.9550236,0.926353591 C97.8599989,0.41679558 97.3527727,0 96.8288529,0 L75.1015909,0 C74.5789552,0 74.0704448,0.41679558 73.9754202,0.926353591 L69.9137576,22.5323757 C69.8161647,23.0419337 69.3333367,23.5921547 68.8338151,23.7548066 L54.1987321,29.6827072 C53.7300293,29.9114365 52.9890937,29.859337 52.5601986,29.5658011 L34.3193147,17.1788398 C33.8878513,16.8853039 33.2303833,16.9450276 32.8618417,17.3122652 L17.4986643,32.5138674 C17.1301226,32.881105 17.0672009,33.530442 17.363832,33.9574033 L29.66439,51.6966298 C29.959737,52.1261326 30.0072493,52.850442 29.7671194,53.3117127 L23.2938849,68.2502762 C23.1230973,68.7407735 22.5619381,69.2185635 22.0444389,69.3138674 L0.936121394,73.198453 C0.421190422,73.2950276 0,73.7956906 0,74.3141436 L0.00128411714,95.8134254 C0.00128411714,96.3318785 0.422474539,96.8363536 0.937405512,96.929116 L21.5282238,100.720939 C22.0431548,100.813702 22.5953252,101.297845 22.7519875,101.792155 L29.1789938,117.682486 C29.4101348,118.14884 29.3562019,118.878232 29.0570026,119.305193 L17.3612637,136.172707 C17.0659168,136.599669 17.1262703,137.249006 17.496096,137.616243 L32.8618417,152.817845 C33.2303833,153.182541 33.8878513,153.242265 34.3193147,152.952541 L51.062918,141.579613 C51.4930973,141.287348 52.2160552,141.264475 52.6680645,141.526243 L60.051738,145.427348 C60.5178725,145.662431 61.0649064,145.464199 61.2639446,144.985138 L76.4884374,108.581602 C76.6913279,108.102541 76.4884374,107.490055 76.0428488,107.219392 L74.1950042,106.10116 C73.853429,105.894033 73.3898627,105.539503 73.0264576,105.214199 C66.3606055,100.990331 61.936822,93.601105 61.936822,85.1864088 C61.936822,72.0548066 72.6964395,61.41 85.9652219,61.41 C99.2340043,61.41 109.991054,72.0548066 109.991054,85.1864088 C109.991054,93.601105 105.569838,100.990331 98.9027021,105.214199 C98.5418651,105.539503 98.0782989,105.894033 97.7367237,106.10116 L95.8888791,107.219392 C95.4445746,107.490055 95.2416841,108.102541 95.4420064,108.581602 L110.666499,144.985138 C110.866821,145.464199 111.411287,145.662431 111.87999,145.427348 L119.263663,141.526243 C119.714389,141.264475 120.437346,141.287348 120.86881,141.579613 L137.612413,152.952541 C138.043877,153.242265 138.701345,153.182541 139.069886,152.817845 L154.434348,137.616243 C154.805458,137.249006 154.864527,136.599669 154.56918,136.172707 L142.872157,119.305193 C142.575526,118.878232 142.520309,118.14884 142.75145,117.682486 L149.17974,101.792155 C149.337687,101.297845 149.884721,100.813702 150.400936,100.720939 L170.991754,96.929116 C171.505401,96.8363536 171.927876,96.3318785 171.927876,95.8134254 L171.930444,74.3141436 C171.930444,73.7956906 171.507969,73.2950276 170.994322,73.198453" id="Fill-1"></path>
                </g>
                <path d="M109.933865,159.457369 C138.686561,147.965491 159,119.854974 159,87 C159,43.9217895 124.07821,9 81,9 C37.9217895,9 3,43.9217895 3,87 C3,118.878402 22.123803,146.2902 49.5249024,158.388888 L69.1837387,110.165991 C60.764188,105.862842 55,97.1045703 55,87 C55,72.6405965 66.6405965,61 81,61 C95.3594035,61 107,72.6405965 107,87 C107,97.8160757 100.395471,107.089581 90.9992814,111.007646 L109.933865,159.457369 Z" id="Oval-4" stroke="#000000" stroke-width="5" stroke-linecap="round" stroke-linejoin="round" sketch:type="MSShapeGroup"></path>
                <rect id="Rectangle-61" sketch:type="MSShapeGroup" x="0" y="0" width="354" height="169"></rect>
            </g>
        </g>
    </g>
</svg>
